#define pie1_width 32
#define pie1_height 32
static char pie1_bits[] = {
  0x00, 0x00, 0x00, 0x00, 0x00, 0x00, 0x00, 0x00, 0x00, 0x00, 0x00, 0x00, 
  0x00, 0x00, 0x00, 0x00, 0x00, 0x00, 0x00, 0x00, 0x00, 0x00, 0x00, 0x00, 
  0x00, 0x00, 0x00, 0x00, 0x00, 0x00, 0x00, 0x00, 0x00, 0xC0, 0x07, 0x00, 
  0x00, 0x30, 0x1F, 0x00, 0x00, 0x08, 0x3F, 0x00, 0x00, 0x04, 0x5F, 0x00, 
  0x00, 0x02, 0x8F, 0x00, 0x00, 0x02, 0x87, 0x00, 0x00, 0x01, 0x03, 0x01, 
  0x00, 0x01, 0x01, 0x01, 0x00, 0x01, 0x00, 0x01, 0x00, 0x01, 0x00, 0x01, 
  0x00, 0x01, 0x00, 0x01, 0x00, 0x02, 0x80, 0x00, 0x00, 0x02, 0x80, 0x00, 
  0x00, 0x04, 0x40, 0x00, 0x00, 0x08, 0x20, 0x00, 0x00, 0x30, 0x18, 0x00, 
  0x00, 0xC0, 0x07, 0x00, 0x00, 0x00, 0x00, 0x00, 0x00, 0x00, 0x00, 0x00, 
  0x00, 0x00, 0x00, 0x00, 0x00, 0x00, 0x00, 0x00, 0x00, 0x00, 0x00, 0x00, 
  0x00, 0x00, 0x00, 0x00, 0x00, 0x00, 0x00, 0x00, };
