#define pie3_width 32
#define pie3_height 32
static char pie3_bits[] = {
  0x00, 0x00, 0x00, 0x00, 0x00, 0x00, 0x00, 0x00, 0x00, 0x00, 0x00, 0x00, 
  0x00, 0x00, 0x00, 0x00, 0x00, 0x00, 0x00, 0x00, 0x00, 0x00, 0x00, 0x00, 
  0x00, 0x00, 0x00, 0x00, 0x00, 0x00, 0x00, 0x00, 0x00, 0xC0, 0x07, 0x00, 
  0x00, 0x30, 0x1F, 0x00, 0x00, 0x08, 0x3F, 0x00, 0x00, 0x04, 0x7F, 0x00, 
  0x00, 0x02, 0xFF, 0x00, 0x00, 0x02, 0xFF, 0x00, 0x00, 0x01, 0xFF, 0x01, 
  0x00, 0x01, 0xFF, 0x01, 0x00, 0x01, 0xFF, 0x01, 0x00, 0x01, 0xFE, 0x01, 
  0x00, 0x01, 0xFC, 0x01, 0x00, 0x02, 0xF8, 0x00, 0x00, 0x02, 0xF0, 0x00, 
  0x00, 0x04, 0x60, 0x00, 0x00, 0x08, 0x20, 0x00, 0x00, 0x30, 0x18, 0x00, 
  0x00, 0xC0, 0x07, 0x00, 0x00, 0x00, 0x00, 0x00, 0x00, 0x00, 0x00, 0x00, 
  0x00, 0x00, 0x00, 0x00, 0x00, 0x00, 0x00, 0x00, 0x00, 0x00, 0x00, 0x00, 
  0x00, 0x00, 0x00, 0x00, 0x00, 0x00, 0x00, 0x00, };
