#define pie5_width 32
#define pie5_height 32
static char pie5_bits[] = {
  0x00, 0x00, 0x00, 0x00, 0x00, 0x00, 0x00, 0x00, 0x00, 0x00, 0x00, 0x00, 
  0x00, 0x00, 0x00, 0x00, 0x00, 0x00, 0x00, 0x00, 0x00, 0x00, 0x00, 0x00, 
  0x00, 0x00, 0x00, 0x00, 0x00, 0x00, 0x00, 0x00, 0x00, 0xC0, 0x07, 0x00, 
  0x00, 0x30, 0x1F, 0x00, 0x00, 0x08, 0x3F, 0x00, 0x00, 0x04, 0x7F, 0x00, 
  0x00, 0x02, 0xFF, 0x00, 0x00, 0x02, 0xFF, 0x00, 0x00, 0x01, 0xFF, 0x01, 
  0x00, 0x01, 0xFF, 0x01, 0x00, 0x01, 0xFF, 0x01, 0x00, 0x81, 0xFF, 0x01, 
  0x00, 0xC1, 0xFF, 0x01, 0x00, 0xE2, 0xFF, 0x00, 0x00, 0xF2, 0xFF, 0x00, 
  0x00, 0xFC, 0x7F, 0x00, 0x00, 0xF8, 0x3F, 0x00, 0x00, 0xF0, 0x1F, 0x00, 
  0x00, 0xC0, 0x07, 0x00, 0x00, 0x00, 0x00, 0x00, 0x00, 0x00, 0x00, 0x00, 
  0x00, 0x00, 0x00, 0x00, 0x00, 0x00, 0x00, 0x00, 0x00, 0x00, 0x00, 0x00, 
  0x00, 0x00, 0x00, 0x00, 0x00, 0x00, 0x00, 0x00, };
